<?xml version="1.0" encoding="utf-8"?>
<!-- Generator: Adobe Illustrator 16.0.0, SVG Export Plug-In . SVG Version: 6.00 Build 0)  -->
<!DOCTYPE svg PUBLIC "-//W3C//DTD SVG 1.1//EN" "http://www.w3.org/Graphics/SVG/1.1/DTD/svg11.dtd">
<svg version="1.1" id="Layer_1" xmlns="http://www.w3.org/2000/svg" xmlns:xlink="http://www.w3.org/1999/xlink" x="0px" y="0px"
	 width="229.014px" height="277.07px" viewBox="161.87 213.312 229.014 277.07"
	 enable-background="new 161.87 213.312 229.014 277.07" xml:space="preserve">
<g>
	<path fill="#CC0000" d="M390.884,362.198c0-32.541-13.681-61.915-35.564-82.765v-57.791c0-4.124-3.029-7.617-7.108-8.208
		c-1.625-0.227-10.292-0.979-20.137,7.545c-7.794,6.755-14.118,17.324-18.977,31.607c-10.37-3.14-21.331-4.892-32.718-4.892
		c-3.427,0-6.799,0.221-10.148,0.536v-2.283v-24.305c0-4.583-3.709-8.292-8.292-8.292c-4.583,0-8.292,3.709-8.292,8.292v24.305
		v5.025v15.753v3.411c0,23.697-15.333,42.972-34.183,42.972s-34.188-19.275-34.188-42.972v-48.488c0-4.583-3.709-8.292-8.291-8.292
		c-4.583,0-8.292,3.709-8.292,8.292v48.488c0,14.123,4.234,27.096,11.26,37.311c-8.96,16.251-14.084,34.896-14.084,54.751
		c0,37.118,17.837,70.073,45.299,91.007v28.887c0,4.582,3.709,8.291,8.292,8.291c4.582,0,8.291-3.709,8.291-8.291v-18.307
		c15.776,8.203,33.641,12.912,52.623,12.912c23,0,44.398-6.883,62.357-18.602v23.996c0,4.582,3.709,8.291,8.291,8.291
		s8.292-3.709,8.292-8.291v-37.162C377.181,424.062,390.884,394.728,390.884,362.198z M177.143,362.198
		c0-15.345,3.587-29.827,9.867-42.778c5.942,4.737,12.796,7.971,20.17,9.402v104.367
		C188.679,415.152,177.143,390.013,177.143,362.198z M276.38,461.435c-19.341,0-37.344-5.645-52.623-15.252V328.816
		c24.05-4.665,42.474-29.169,42.474-58.687v-6.566c3.338-0.359,6.71-0.603,10.148-0.603c9.934,0,19.507,1.503,28.55,4.262
		c-5.157,21.856-7.749,50.124-7.749,84.644c0,16.461,6.118,44.309,29.069,44.309c4.582,0,8.291-3.709,8.291-8.292
		c0-4.582-3.709-8.291-8.291-8.291c-10.287,0-12.465-21.878-12.487-27.727c0-36.15,2.958-61.55,7.031-79.42
		c1.305-5.323,2.77-10.188,3.98-13.875c-0.039-0.017-0.083-0.033-0.122-0.055c4.411-13.2,9.364-20.27,13.205-24.006
		c0.299-0.293,0.598-0.569,0.885-0.824v32.607v18.811v154.186C321.684,453.111,299.994,461.435,276.38,461.435z M355.319,302.234
		c12.708,16.666,20.298,37.427,20.298,59.963c0,22.508-7.617,43.22-20.298,59.886V302.234z"/>
	<path fill="#CC0000" d="M201.647,299.128c4.582,0,8.291-3.709,8.291-8.292v-69.194c0-4.583-3.709-8.292-8.291-8.292
		c-4.583,0-8.292,3.709-8.292,8.292v69.194C193.355,295.419,197.07,299.128,201.647,299.128z"/>
	<path fill="#CC0000" d="M228.793,299.128c4.582,0,8.291-3.709,8.291-8.292v-69.194c0-4.583-3.709-8.292-8.291-8.292
		c-4.583,0-8.292,3.709-8.292,8.292v69.194C220.501,295.419,224.21,299.128,228.793,299.128z"/>
</g>
</svg>
